<svg width="640" height="640" viewBox="0 0 640 640" fill="none" xmlns="http://www.w3.org/2000/svg" role="img" aria-label="Banana fiber illustration">
  <defs>
    <linearGradient id="paper" x1="126" y1="88" x2="526" y2="556" gradientUnits="userSpaceOnUse">
      <stop stop-color="#FFFFFF" stop-opacity="0.92"/>
      <stop offset="1" stop-color="#FFFFFF" stop-opacity="0.68"/>
    </linearGradient>
    <linearGradient id="fiber" x1="144" y1="140" x2="520" y2="520" gradientUnits="userSpaceOnUse">
      <stop stop-color="#1F1B17" stop-opacity="0.10"/>
      <stop offset="1" stop-color="#D72638" stop-opacity="0.10"/>
    </linearGradient>
    <filter id="soft" x="0" y="0" width="640" height="640" filterUnits="userSpaceOnUse" color-interpolation-filters="sRGB">
      <feGaussianBlur stdDeviation="10"/>
    </filter>
  </defs>

  <g opacity="0.35" filter="url(#soft)">
    <path d="M140 372 C 210 470, 340 520, 468 474 C 545 446, 564 376, 512 314 C 451 244, 330 200, 228 240 C 156 268, 112 324, 140 372 Z" fill="#D72638" fill-opacity="0.20"/>
  </g>

  <!-- Subtle Africa silhouette -->
  <path d="M452 148 C 430 154, 420 172, 424 196 C 428 226, 406 246, 388 262 C 368 280, 360 304, 370 330 C 380 356, 370 374, 352 392 C 334 410, 326 430, 338 452 C 352 478, 376 494, 398 494 C 422 494, 430 474, 446 454 C 462 436, 490 424, 494 396 C 498 366, 478 346, 482 320 C 486 292, 510 278, 508 250 C 506 220, 480 210, 478 190 C 476 168, 468 144, 452 148 Z" fill="#1F1B17" fill-opacity="0.045" stroke="#D72638" stroke-opacity="0.14" stroke-width="2"/>

  <path d="M162 120 C 140 196, 136 302, 168 404 C 210 538, 342 570, 450 520 C 548 474, 546 340, 498 252 C 456 176, 372 122, 286 112 C 234 106, 180 86, 162 120 Z" fill="url(#paper)" stroke="#1F1B17" stroke-opacity="0.12" stroke-width="2"/>

  <!-- Fiber strands -->
  <path d="M190 180 C 210 210, 220 260, 212 312 C 205 360, 222 418, 264 460" stroke="url(#fiber)" stroke-width="3" stroke-linecap="round"/>
  <path d="M228 164 C 260 220, 270 276, 252 338 C 236 392, 260 454, 314 492" stroke="url(#fiber)" stroke-width="3" stroke-linecap="round"/>
  <path d="M270 150 C 305 210, 312 276, 290 350 C 270 418, 300 474, 362 508" stroke="url(#fiber)" stroke-width="3" stroke-linecap="round"/>
  <path d="M314 150 C 354 218, 354 284, 326 360 C 302 424, 334 488, 404 516" stroke="url(#fiber)" stroke-width="3" stroke-linecap="round"/>
  <path d="M356 160 C 404 236, 404 308, 370 388 C 342 454, 378 506, 448 520" stroke="url(#fiber)" stroke-width="3" stroke-linecap="round"/>

  <!-- Accent stitching -->
  <path d="M210 120 C 228 170, 224 238, 214 290 C 200 366, 222 450, 296 520" stroke="#D72638" stroke-opacity="0.55" stroke-width="2" stroke-dasharray="6 10" stroke-linecap="round"/>

  <circle cx="458" cy="190" r="7" fill="#D72638" fill-opacity="0.22"/>
  <circle cx="182" cy="344" r="9" fill="#1F1B17" fill-opacity="0.06"/>
  <circle cx="392" cy="512" r="8" fill="#D72638" fill-opacity="0.18"/>
</svg>
