<svg width="24" height="24" viewBox="0 0 24 24" fill="none" xmlns="http://www.w3.org/2000/svg" aria-hidden="true">
  <path d="M7.2 4.8H16.8C18.1255 4.8 19.2 5.87452 19.2 7.2V16.8C19.2 18.1255 18.1255 19.2 16.8 19.2H7.2C5.87452 19.2 4.8 18.1255 4.8 16.8V7.2C4.8 5.87452 5.87452 4.8 7.2 4.8Z" stroke="#1F1B17" stroke-opacity="0.72" stroke-width="1.6"/>
  <path d="M12 15.2C13.7673 15.2 15.2 13.7673 15.2 12C15.2 10.2327 13.7673 8.8 12 8.8C10.2327 8.8 8.8 10.2327 8.8 12C8.8 13.7673 10.2327 15.2 12 15.2Z" stroke="#D72638" stroke-opacity="0.85" stroke-width="1.6"/>
  <path d="M16.8 7.35H16.81" stroke="#D72638" stroke-opacity="0.85" stroke-width="2.2" stroke-linecap="round"/>
</svg>

