<svg width="24" height="24" viewBox="0 0 24 24" fill="none" xmlns="http://www.w3.org/2000/svg" aria-hidden="true">
  <path d="M6.6 9.8H8.9V18H6.6V9.8Z" fill="#1F1B17" fill-opacity="0.72"/>
  <path d="M7.75 8.6C8.47 8.6 9.05 8.02 9.05 7.3C9.05 6.58 8.47 6 7.75 6C7.03 6 6.45 6.58 6.45 7.3C6.45 8.02 7.03 8.6 7.75 8.6Z" fill="#D72638" fill-opacity="0.85"/>
  <path d="M11 9.8H13.2V10.9H13.23C13.54 10.32 14.3 9.72 15.46 9.72C17.9 9.72 18.35 11.26 18.35 13.3V18H16V13.82C16 12.84 15.98 11.58 14.62 11.58C13.24 11.58 13.03 12.66 13.03 13.75V18H10.7V9.8H11Z" fill="#1F1B17" fill-opacity="0.72"/>
</svg>

